{
	"patcher" : 	{
		"fileversion" : 1,
		"rect" : [ 0.0, 44.0, 1280.0, 680.0 ],
		"bglocked" : 0,
		"defrect" : [ 0.0, 44.0, 1280.0, 680.0 ],
		"openrect" : [ 0.0, 0.0, 0.0, 0.0 ],
		"openinpresentation" : 0,
		"default_fontsize" : 14.0,
		"default_fontface" : 0,
		"default_fontname" : "Arial",
		"gridonopen" : 0,
		"gridsize" : [ 15.0, 15.0 ],
		"gridsnaponopen" : 0,
		"toolbarvisible" : 1,
		"boxanimatetime" : 200,
		"imprint" : 0,
		"enablehscroll" : 1,
		"enablevscroll" : 1,
		"devicewidth" : 0.0,
		"boxes" : [ 			{
				"box" : 				{
					"maxclass" : "newobj",
					"text" : "s m40",
					"fontname" : "Arial",
					"patching_rect" : [ 665.528748, 372.234863, 43.0, 21.0 ],
					"id" : "obj-1",
					"fontsize" : 12.629083,
					"numinlets" : 1,
					"numoutlets" : 0
				}

			}
, 			{
				"box" : 				{
					"maxclass" : "newobj",
					"text" : "s m39",
					"fontname" : "Arial",
					"patching_rect" : [ 413.402313, 365.334137, 43.0, 21.0 ],
					"id" : "obj-2",
					"fontsize" : 12.629083,
					"numinlets" : 1,
					"numoutlets" : 0
				}

			}
, 			{
				"box" : 				{
					"maxclass" : "newobj",
					"text" : "s m55",
					"fontname" : "Arial",
					"patching_rect" : [ 677.827576, 413.639221, 43.0, 21.0 ],
					"id" : "obj-3",
					"fontsize" : 12.629083,
					"numinlets" : 1,
					"numoutlets" : 0
				}

			}
, 			{
				"box" : 				{
					"maxclass" : "newobj",
					"text" : "s m54",
					"fontname" : "Arial",
					"patching_rect" : [ 628.632202, 557.174316, 43.0, 21.0 ],
					"id" : "obj-4",
					"fontsize" : 12.629083,
					"numinlets" : 1,
					"numoutlets" : 0
				}

			}
, 			{
				"box" : 				{
					"maxclass" : "newobj",
					"text" : "s m53",
					"fontname" : "Arial",
					"patching_rect" : [ 617.563232, 521.290527, 43.0, 21.0 ],
					"id" : "obj-5",
					"fontsize" : 12.629083,
					"numinlets" : 1,
					"numoutlets" : 0
				}

			}
, 			{
				"box" : 				{
					"maxclass" : "newobj",
					"text" : "s m52",
					"fontname" : "Arial",
					"patching_rect" : [ 601.574707, 482.646484, 43.0, 21.0 ],
					"id" : "obj-6",
					"fontsize" : 12.629083,
					"numinlets" : 1,
					"numoutlets" : 0
				}

			}
, 			{
				"box" : 				{
					"maxclass" : "newobj",
					"text" : "s m51",
					"fontname" : "Arial",
					"patching_rect" : [ 589.275879, 449.52301, 43.0, 21.0 ],
					"id" : "obj-7",
					"fontsize" : 12.629083,
					"numinlets" : 1,
					"numoutlets" : 0
				}

			}
, 			{
				"box" : 				{
					"maxclass" : "newobj",
					"text" : "s m50",
					"fontname" : "Arial",
					"patching_rect" : [ 573.287354, 415.019379, 43.0, 21.0 ],
					"id" : "obj-8",
					"fontsize" : 12.629083,
					"numinlets" : 1,
					"numoutlets" : 0
				}

			}
, 			{
				"box" : 				{
					"maxclass" : "newobj",
					"text" : "s m49",
					"fontname" : "Arial",
					"patching_rect" : [ 558.528748, 380.515747, 43.0, 21.0 ],
					"id" : "obj-9",
					"fontsize" : 12.629083,
					"numinlets" : 1,
					"numoutlets" : 0
				}

			}
, 			{
				"box" : 				{
					"maxclass" : "newobj",
					"text" : "s m47",
					"fontname" : "Arial",
					"patching_rect" : [ 436.770111, 406.738495, 43.0, 21.0 ],
					"id" : "obj-10",
					"fontsize" : 12.629083,
					"numinlets" : 1,
					"numoutlets" : 0
				}

			}
, 			{
				"box" : 				{
					"maxclass" : "newobj",
					"text" : "s m46",
					"fontname" : "Arial",
					"patching_rect" : [ 407.252869, 547.513306, 43.0, 21.0 ],
					"id" : "obj-11",
					"fontsize" : 12.629083,
					"numinlets" : 1,
					"numoutlets" : 0
				}

			}
, 			{
				"box" : 				{
					"maxclass" : "newobj",
					"text" : "s m45",
					"fontname" : "Arial",
					"patching_rect" : [ 396.183899, 511.629547, 43.0, 21.0 ],
					"id" : "obj-12",
					"fontsize" : 12.629083,
					"numinlets" : 1,
					"numoutlets" : 0
				}

			}
, 			{
				"box" : 				{
					"maxclass" : "newobj",
					"text" : "s m44",
					"fontname" : "Arial",
					"patching_rect" : [ 380.195404, 472.985474, 43.0, 21.0 ],
					"id" : "obj-13",
					"fontsize" : 12.629083,
					"numinlets" : 1,
					"numoutlets" : 0
				}

			}
, 			{
				"box" : 				{
					"maxclass" : "newobj",
					"text" : "s m43",
					"fontname" : "Arial",
					"patching_rect" : [ 367.896545, 439.862, 43.0, 21.0 ],
					"id" : "obj-14",
					"fontsize" : 12.629083,
					"numinlets" : 1,
					"numoutlets" : 0
				}

			}
, 			{
				"box" : 				{
					"maxclass" : "newobj",
					"text" : "s m42",
					"fontname" : "Arial",
					"patching_rect" : [ 351.908051, 405.358368, 43.0, 21.0 ],
					"id" : "obj-15",
					"fontsize" : 12.629083,
					"numinlets" : 1,
					"numoutlets" : 0
				}

			}
, 			{
				"box" : 				{
					"maxclass" : "newobj",
					"text" : "s m41",
					"fontname" : "Arial",
					"patching_rect" : [ 337.149414, 370.854736, 43.0, 21.0 ],
					"id" : "obj-16",
					"fontsize" : 12.629083,
					"numinlets" : 1,
					"numoutlets" : 0
				}

			}
, 			{
				"box" : 				{
					"maxclass" : "newobj",
					"text" : "s m36",
					"fontname" : "Arial",
					"patching_rect" : [ 493.344818, 521.290527, 43.0, 21.0 ],
					"id" : "obj-17",
					"fontsize" : 12.629083,
					"numinlets" : 1,
					"numoutlets" : 0
				}

			}
, 			{
				"box" : 				{
					"maxclass" : "newobj",
					"text" : "s m35",
					"fontname" : "Arial",
					"patching_rect" : [ 473.666656, 484.026642, 43.0, 21.0 ],
					"id" : "obj-18",
					"fontsize" : 12.629083,
					"numinlets" : 1,
					"numoutlets" : 0
				}

			}
, 			{
				"box" : 				{
					"maxclass" : "newobj",
					"text" : "s m34",
					"fontname" : "Arial",
					"patching_rect" : [ 699.965515, 460.564178, 43.0, 21.0 ],
					"id" : "obj-19",
					"fontsize" : 12.629083,
					"numinlets" : 1,
					"numoutlets" : 0
				}

			}
, 			{
				"box" : 				{
					"maxclass" : "newobj",
					"text" : "s m33",
					"fontname" : "Arial",
					"patching_rect" : [ 455.218384, 445.382568, 43.0, 21.0 ],
					"id" : "obj-20",
					"fontsize" : 12.629083,
					"numinlets" : 1,
					"numoutlets" : 0
				}

			}
, 			{
				"box" : 				{
					"maxclass" : "newobj",
					"text" : "s inmod6",
					"linecount" : 2,
					"fontname" : "Arial",
					"patching_rect" : [ 260.896545, 573.736084, 54.114941, 33.0 ],
					"id" : "obj-21",
					"fontsize" : 11.717364,
					"numinlets" : 1,
					"numoutlets" : 0
				}

			}
, 			{
				"box" : 				{
					"maxclass" : "newobj",
					"text" : "s inmod5",
					"linecount" : 2,
					"fontname" : "Arial",
					"patching_rect" : [ 247.367813, 535.09198, 54.114941, 33.0 ],
					"id" : "obj-22",
					"fontsize" : 11.717364,
					"numinlets" : 1,
					"numoutlets" : 0
				}

			}
, 			{
				"box" : 				{
					"maxclass" : "newobj",
					"text" : "s inmod4",
					"linecount" : 2,
					"fontname" : "Arial",
					"patching_rect" : [ 226.459763, 497.828094, 54.114941, 33.0 ],
					"id" : "obj-23",
					"fontsize" : 11.717364,
					"numinlets" : 1,
					"numoutlets" : 0
				}

			}
, 			{
				"box" : 				{
					"maxclass" : "newobj",
					"text" : "s inmod3",
					"linecount" : 2,
					"fontname" : "Arial",
					"patching_rect" : [ 212.93103, 459.184021, 54.114941, 33.0 ],
					"id" : "obj-24",
					"fontsize" : 11.717364,
					"numinlets" : 1,
					"numoutlets" : 0
				}

			}
, 			{
				"box" : 				{
					"maxclass" : "newobj",
					"text" : "s inmod2",
					"linecount" : 2,
					"fontname" : "Arial",
					"patching_rect" : [ 201.862076, 419.159821, 54.114941, 33.0 ],
					"id" : "obj-25",
					"fontsize" : 11.717364,
					"numinlets" : 1,
					"numoutlets" : 0
				}

			}
, 			{
				"box" : 				{
					"maxclass" : "newobj",
					"text" : "s inmod1",
					"linecount" : 2,
					"fontname" : "Arial",
					"patching_rect" : [ 188.333328, 380.515747, 54.114941, 33.0 ],
					"id" : "obj-26",
					"fontsize" : 11.717364,
					"numinlets" : 1,
					"numoutlets" : 0
				}

			}
, 			{
				"box" : 				{
					"maxclass" : "button",
					"outlettype" : [ "bang" ],
					"patching_rect" : [ 120.689651, 238.360779, 18.448277, 18.448277 ],
					"id" : "obj-27",
					"numinlets" : 1,
					"numoutlets" : 1
				}

			}
, 			{
				"box" : 				{
					"maxclass" : "newobj",
					"text" : "route 0 1 2 3 4 5 6 7 8 9 10 11 12 13 14 15 16 17 18 19 20 21 22 23 24 25 26 27 28 29 30 31 32 33 34 35 36 37 38 39 40 41 42 43 44 45 46 47 48 49 50 51 52 53 54 55 56",
					"outlettype" : [ "", "", "", "", "", "", "", "", "", "", "", "", "", "", "", "", "", "", "", "", "", "", "", "", "", "", "", "", "", "", "", "", "", "", "", "", "", "", "", "", "", "", "", "", "", "", "", "", "", "", "", "", "", "", "", "", "", "" ],
					"fontname" : "Arial",
					"patching_rect" : [ 151.436783, 190.055695, 967.0, 21.0 ],
					"id" : "obj-28",
					"fontsize" : 12.629083,
					"numinlets" : 1,
					"numoutlets" : 58
				}

			}
, 			{
				"box" : 				{
					"maxclass" : "inlet",
					"outlettype" : [ "" ],
					"patching_rect" : [ 259.666656, 118.288139, 18.448277, 18.448277 ],
					"id" : "obj-29",
					"numinlets" : 0,
					"numoutlets" : 1,
					"comment" : ""
				}

			}
, 			{
				"box" : 				{
					"maxclass" : "comment",
					"text" : "route modulations to proper destination",
					"linecount" : 2,
					"fontname" : "Arial",
					"patching_rect" : [ 10.0, 41.0, 122.988503, 33.0 ],
					"id" : "obj-30",
					"fontsize" : 11.717364,
					"numinlets" : 1,
					"numoutlets" : 0
				}

			}
, 			{
				"box" : 				{
					"maxclass" : "comment",
					"text" : "message",
					"fontname" : "Arial",
					"patching_rect" : [ 235.06897, 79.644066, 65.183907, 21.0 ],
					"id" : "obj-31",
					"fontsize" : 12.629083,
					"numinlets" : 1,
					"numoutlets" : 0
				}

			}
, 			{
				"box" : 				{
					"maxclass" : "comment",
					"text" : "0 - is black hole",
					"fontname" : "Arial",
					"patching_rect" : [ 12.45977, 100.346245, 122.988503, 21.0 ],
					"id" : "obj-32",
					"fontsize" : 12.629083,
					"numinlets" : 1,
					"numoutlets" : 0
				}

			}
, 			{
				"box" : 				{
					"maxclass" : "comment",
					"text" : "6 is left unused due to spiritual reasons",
					"linecount" : 2,
					"fontname" : "Arial",
					"patching_rect" : [ 11.229885, 136.230026, 126.0, 33.0 ],
					"id" : "obj-33",
					"fontsize" : 11.717364,
					"numinlets" : 1,
					"numoutlets" : 0
				}

			}
, 			{
				"box" : 				{
					"maxclass" : "comment",
					"text" : "future expansion would include buttons and memory related items if we can ever get the serial ports to respond fast enough",
					"linecount" : 6,
					"fontname" : "Arial",
					"patching_rect" : [ 766.379333, 307.368042, 122.988503, 85.0 ],
					"id" : "obj-34",
					"fontsize" : 11.326693,
					"numinlets" : 1,
					"numoutlets" : 0
				}

			}
 ],
		"lines" : [ 			{
				"patchline" : 				{
					"source" : [ "obj-28", 26 ],
					"destination" : [ "obj-19", 0 ],
					"hidden" : 0,
					"midpoints" : [  ]
				}

			}
, 			{
				"patchline" : 				{
					"source" : [ "obj-28", 25 ],
					"destination" : [ "obj-3", 0 ],
					"hidden" : 0,
					"midpoints" : [  ]
				}

			}
, 			{
				"patchline" : 				{
					"source" : [ "obj-28", 24 ],
					"destination" : [ "obj-1", 0 ],
					"hidden" : 0,
					"midpoints" : [  ]
				}

			}
, 			{
				"patchline" : 				{
					"source" : [ "obj-28", 23 ],
					"destination" : [ "obj-4", 0 ],
					"hidden" : 0,
					"midpoints" : [  ]
				}

			}
, 			{
				"patchline" : 				{
					"source" : [ "obj-28", 22 ],
					"destination" : [ "obj-5", 0 ],
					"hidden" : 0,
					"midpoints" : [  ]
				}

			}
, 			{
				"patchline" : 				{
					"source" : [ "obj-28", 21 ],
					"destination" : [ "obj-6", 0 ],
					"hidden" : 0,
					"midpoints" : [  ]
				}

			}
, 			{
				"patchline" : 				{
					"source" : [ "obj-28", 20 ],
					"destination" : [ "obj-7", 0 ],
					"hidden" : 0,
					"midpoints" : [  ]
				}

			}
, 			{
				"patchline" : 				{
					"source" : [ "obj-28", 19 ],
					"destination" : [ "obj-8", 0 ],
					"hidden" : 0,
					"midpoints" : [  ]
				}

			}
, 			{
				"patchline" : 				{
					"source" : [ "obj-28", 18 ],
					"destination" : [ "obj-9", 0 ],
					"hidden" : 0,
					"midpoints" : [  ]
				}

			}
, 			{
				"patchline" : 				{
					"source" : [ "obj-28", 17 ],
					"destination" : [ "obj-17", 0 ],
					"hidden" : 0,
					"midpoints" : [  ]
				}

			}
, 			{
				"patchline" : 				{
					"source" : [ "obj-28", 16 ],
					"destination" : [ "obj-18", 0 ],
					"hidden" : 0,
					"midpoints" : [  ]
				}

			}
, 			{
				"patchline" : 				{
					"source" : [ "obj-28", 15 ],
					"destination" : [ "obj-20", 0 ],
					"hidden" : 0,
					"midpoints" : [  ]
				}

			}
, 			{
				"patchline" : 				{
					"source" : [ "obj-28", 14 ],
					"destination" : [ "obj-10", 0 ],
					"hidden" : 0,
					"midpoints" : [  ]
				}

			}
, 			{
				"patchline" : 				{
					"source" : [ "obj-28", 13 ],
					"destination" : [ "obj-2", 0 ],
					"hidden" : 0,
					"midpoints" : [  ]
				}

			}
, 			{
				"patchline" : 				{
					"source" : [ "obj-28", 12 ],
					"destination" : [ "obj-11", 0 ],
					"hidden" : 0,
					"midpoints" : [  ]
				}

			}
, 			{
				"patchline" : 				{
					"source" : [ "obj-28", 11 ],
					"destination" : [ "obj-12", 0 ],
					"hidden" : 0,
					"midpoints" : [  ]
				}

			}
, 			{
				"patchline" : 				{
					"source" : [ "obj-28", 10 ],
					"destination" : [ "obj-13", 0 ],
					"hidden" : 0,
					"midpoints" : [  ]
				}

			}
, 			{
				"patchline" : 				{
					"source" : [ "obj-28", 9 ],
					"destination" : [ "obj-14", 0 ],
					"hidden" : 0,
					"midpoints" : [  ]
				}

			}
, 			{
				"patchline" : 				{
					"source" : [ "obj-28", 8 ],
					"destination" : [ "obj-15", 0 ],
					"hidden" : 0,
					"midpoints" : [  ]
				}

			}
, 			{
				"patchline" : 				{
					"source" : [ "obj-28", 7 ],
					"destination" : [ "obj-16", 0 ],
					"hidden" : 0,
					"midpoints" : [  ]
				}

			}
, 			{
				"patchline" : 				{
					"source" : [ "obj-28", 6 ],
					"destination" : [ "obj-21", 0 ],
					"hidden" : 0,
					"midpoints" : [  ]
				}

			}
, 			{
				"patchline" : 				{
					"source" : [ "obj-28", 5 ],
					"destination" : [ "obj-22", 0 ],
					"hidden" : 0,
					"midpoints" : [  ]
				}

			}
, 			{
				"patchline" : 				{
					"source" : [ "obj-28", 4 ],
					"destination" : [ "obj-23", 0 ],
					"hidden" : 0,
					"midpoints" : [  ]
				}

			}
, 			{
				"patchline" : 				{
					"source" : [ "obj-28", 3 ],
					"destination" : [ "obj-24", 0 ],
					"hidden" : 0,
					"midpoints" : [  ]
				}

			}
, 			{
				"patchline" : 				{
					"source" : [ "obj-28", 2 ],
					"destination" : [ "obj-25", 0 ],
					"hidden" : 0,
					"midpoints" : [  ]
				}

			}
, 			{
				"patchline" : 				{
					"source" : [ "obj-28", 1 ],
					"destination" : [ "obj-26", 0 ],
					"hidden" : 0,
					"midpoints" : [  ]
				}

			}
, 			{
				"patchline" : 				{
					"source" : [ "obj-29", 0 ],
					"destination" : [ "obj-28", 0 ],
					"hidden" : 0,
					"midpoints" : [  ]
				}

			}
, 			{
				"patchline" : 				{
					"source" : [ "obj-28", 0 ],
					"destination" : [ "obj-27", 0 ],
					"hidden" : 0,
					"midpoints" : [  ]
				}

			}
 ]
	}

}
