{
	"patcher" : 	{
		"fileversion" : 1,
		"rect" : [ 108.0, 49.0, 1021.0, 629.0 ],
		"bglocked" : 0,
		"defrect" : [ 108.0, 49.0, 1021.0, 629.0 ],
		"openrect" : [ 0.0, 0.0, 0.0, 0.0 ],
		"openinpresentation" : 0,
		"default_fontsize" : 12.0,
		"default_fontface" : 0,
		"default_fontname" : "Arial",
		"gridonopen" : 0,
		"gridsize" : [ 15.0, 15.0 ],
		"gridsnaponopen" : 0,
		"toolbarvisible" : 1,
		"boxanimatetime" : 200,
		"imprint" : 0,
		"enablehscroll" : 1,
		"enablevscroll" : 1,
		"devicewidth" : 0.0,
		"boxes" : [ 			{
				"box" : 				{
					"maxclass" : "comment",
					"text" : "0",
					"numinlets" : 1,
					"numoutlets" : 0,
					"id" : "obj-46",
					"fontname" : "Arial",
					"patching_rect" : [ 655.0, 41.0, 18.0, 20.0 ],
					"fontsize" : 12.0
				}

			}
, 			{
				"box" : 				{
					"maxclass" : "comment",
					"text" : "SR/2",
					"numinlets" : 1,
					"numoutlets" : 0,
					"id" : "obj-44",
					"fontname" : "Arial",
					"patching_rect" : [ 916.0, 42.0, 41.0, 20.0 ],
					"fontsize" : 12.0
				}

			}
, 			{
				"box" : 				{
					"maxclass" : "comment",
					"text" : "-SR/2",
					"numinlets" : 1,
					"numoutlets" : 0,
					"id" : "obj-42",
					"fontname" : "Arial",
					"patching_rect" : [ 397.0, 43.0, 46.0, 20.0 ],
					"fontsize" : 12.0
				}

			}
, 			{
				"box" : 				{
					"maxclass" : "comment",
					"text" : "sample rate determines bandwidth",
					"linecount" : 2,
					"numinlets" : 1,
					"numoutlets" : 0,
					"id" : "obj-40",
					"fontname" : "Arial",
					"patching_rect" : [ 537.0, 189.0, 150.0, 34.0 ],
					"fontsize" : 12.0
				}

			}
, 			{
				"box" : 				{
					"maxclass" : "comment",
					"text" : "audio amplifier",
					"numinlets" : 1,
					"numoutlets" : 0,
					"id" : "obj-38",
					"fontname" : "Arial",
					"patching_rect" : [ 322.0, 436.0, 150.0, 20.0 ],
					"fontsize" : 12.0
				}

			}
, 			{
				"box" : 				{
					"maxclass" : "comment",
					"text" : "basicSDR1\n\nA basic software defined radio ",
					"linecount" : 4,
					"numinlets" : 1,
					"bgcolor" : [ 0.917647, 0.937255, 0.670588, 1.0 ],
					"numoutlets" : 0,
					"id" : "obj-36",
					"fontname" : "Arial",
					"patching_rect" : [ 47.0, 306.0, 155.0, 62.0 ],
					"fontsize" : 12.0
				}

			}
, 			{
				"box" : 				{
					"maxclass" : "comment",
					"text" : "example presets",
					"linecount" : 2,
					"numinlets" : 1,
					"numoutlets" : 0,
					"id" : "obj-32",
					"fontname" : "Arial",
					"patching_rect" : [ 46.0, 261.0, 60.0, 34.0 ],
					"fontsize" : 12.0
				}

			}
, 			{
				"box" : 				{
					"maxclass" : "preset",
					"numinlets" : 1,
					"numoutlets" : 4,
					"id" : "obj-8",
					"patching_rect" : [ 47.0, 235.0, 52.0, 21.0 ],
					"outlettype" : [ "preset", "int", "preset", "int" ],
					"preset_data" : [ 						{
							"number" : 1,
							"data" : [ 5, "obj-16", "slider", "float", 8.115942, 5, "obj-19", "slider", "float", 103.384613, 5, "obj-26", "slider", "float", 11.0, 5, "obj-1", "umenu", "int", 3, 5, "obj-5", "live.gain~", "float", -5.984252, 5, "<invalid>", "number", "int", 1 ]
						}
, 						{
							"number" : 2,
							"data" : [ 5, "obj-16", "slider", "float", 66.550728, 5, "obj-19", "slider", "float", 88.615387, 5, "obj-26", "slider", "float", 11.0, 5, "obj-1", "umenu", "int", 3, 5, "obj-5", "live.gain~", "float", -6.371621, 5, "<invalid>", "number", "int", 2 ]
						}
, 						{
							"number" : 3,
							"data" : [ 5, "obj-16", "slider", "float", 94.608696, 5, "obj-19", "slider", "float", 56.123077, 5, "obj-26", "slider", "float", 5.0, 5, "obj-1", "umenu", "int", 3, 5, "obj-5", "live.gain~", "float", -6.371621, 5, "<invalid>", "number", "int", 3 ]
						}
 ]
				}

			}
, 			{
				"box" : 				{
					"maxclass" : "newobj",
					"text" : "*~ 10.",
					"numinlets" : 2,
					"numoutlets" : 1,
					"id" : "obj-7",
					"fontname" : "Arial",
					"patching_rect" : [ 276.0, 437.0, 42.0, 20.0 ],
					"outlettype" : [ "signal" ],
					"fontsize" : 12.0
				}

			}
, 			{
				"box" : 				{
					"maxclass" : "live.gain~",
					"varname" : "live.gain~",
					"numinlets" : 2,
					"numoutlets" : 5,
					"id" : "obj-5",
					"patching_rect" : [ 278.0, 465.0, 48.0, 136.0 ],
					"outlettype" : [ "signal", "signal", "", "float", "list" ],
					"parameter_enable" : 1,
					"saved_attribute_attributes" : 					{
						"valueof" : 						{
							"parameter_info" : "",
							"parameter_order" : 0,
							"parameter_units" : "",
							"parameter_speedlim" : 0,
							"parameter_steps" : 0,
							"parameter_exponent" : 1.0,
							"parameter_unitstyle" : 4,
							"parameter_mmax" : 6.0,
							"parameter_mmin" : -70.0,
							"parameter_initial" : [ 0.0 ],
							"parameter_type" : 0,
							"parameter_initial_enable" : 0,
							"parameter_shortname" : "live.gain~",
							"parameter_invisible" : 0,
							"parameter_modmax" : 127.0,
							"parameter_annotation_name" : "",
							"parameter_longname" : "live.gain~",
							"parameter_modmin" : 0.0,
							"parameter_linknames" : 0,
							"parameter_modmode" : 0
						}

					}

				}

			}
, 			{
				"box" : 				{
					"maxclass" : "comment",
					"text" : "radio device/file",
					"numinlets" : 1,
					"numoutlets" : 0,
					"id" : "obj-86",
					"fontname" : "Arial",
					"patching_rect" : [ 122.0, 49.0, 104.0, 20.0 ],
					"fontsize" : 12.0
				}

			}
, 			{
				"box" : 				{
					"maxclass" : "newobj",
					"text" : "p menu_set",
					"numinlets" : 0,
					"numoutlets" : 1,
					"id" : "obj-217",
					"fontname" : "Arial",
					"patching_rect" : [ 48.0, 49.0, 73.0, 20.0 ],
					"outlettype" : [ "" ],
					"fontsize" : 12.0,
					"patcher" : 					{
						"fileversion" : 1,
						"rect" : [ 29.0, 67.0, 530.0, 436.0 ],
						"bglocked" : 0,
						"defrect" : [ 29.0, 67.0, 530.0, 436.0 ],
						"openrect" : [ 0.0, 0.0, 0.0, 0.0 ],
						"openinpresentation" : 0,
						"default_fontsize" : 12.0,
						"default_fontface" : 0,
						"default_fontname" : "Arial",
						"gridonopen" : 0,
						"gridsize" : [ 15.0, 15.0 ],
						"gridsnaponopen" : 0,
						"toolbarvisible" : 1,
						"boxanimatetime" : 200,
						"imprint" : 0,
						"enablehscroll" : 1,
						"enablevscroll" : 1,
						"devicewidth" : 0.0,
						"boxes" : [ 							{
								"box" : 								{
									"maxclass" : "newobj",
									"text" : "loadbang",
									"numinlets" : 1,
									"numoutlets" : 1,
									"id" : "obj-7",
									"fontname" : "Arial",
									"patching_rect" : [ 264.0, 27.0, 60.0, 20.0 ],
									"outlettype" : [ "bang" ],
									"fontsize" : 12.0
								}

							}
, 							{
								"box" : 								{
									"maxclass" : "message",
									"text" : "0",
									"numinlets" : 2,
									"numoutlets" : 1,
									"id" : "obj-8",
									"fontname" : "Arial",
									"patching_rect" : [ 107.0, 168.0, 32.5, 18.0 ],
									"outlettype" : [ "" ],
									"fontsize" : 12.0
								}

							}
, 							{
								"box" : 								{
									"maxclass" : "outlet",
									"numinlets" : 1,
									"numoutlets" : 0,
									"id" : "obj-11",
									"patching_rect" : [ 194.666687, 365.0, 25.0, 25.0 ],
									"comment" : ""
								}

							}
, 							{
								"box" : 								{
									"maxclass" : "message",
									"text" : "clear, append defaultAudioInput, append soft66lc2, append funCube, append 10meter96.wav, append 6meter96.wav, append am96.wav, append ao4096.wav, append fmWeather96b.wav, append numbers96.wav",
									"linecount" : 4,
									"numinlets" : 2,
									"numoutlets" : 1,
									"id" : "obj-6",
									"fontname" : "Arial",
									"patching_rect" : [ 148.0, 168.0, 327.0, 60.0 ],
									"outlettype" : [ "" ],
									"fontsize" : 12.0
								}

							}
, 							{
								"box" : 								{
									"maxclass" : "comment",
									"text" : "setup input selection menu",
									"linecount" : 2,
									"numinlets" : 1,
									"bgcolor" : [ 0.917647, 0.937255, 0.670588, 1.0 ],
									"numoutlets" : 0,
									"id" : "obj-3",
									"fontname" : "Arial",
									"patching_rect" : [ 45.0, 22.0, 150.0, 34.0 ],
									"fontsize" : 12.0
								}

							}
 ],
						"lines" : [ 							{
								"patchline" : 								{
									"source" : [ "obj-7", 0 ],
									"destination" : [ "obj-8", 0 ],
									"hidden" : 0,
									"midpoints" : [  ]
								}

							}
, 							{
								"patchline" : 								{
									"source" : [ "obj-8", 0 ],
									"destination" : [ "obj-11", 0 ],
									"hidden" : 0,
									"midpoints" : [  ]
								}

							}
, 							{
								"patchline" : 								{
									"source" : [ "obj-7", 0 ],
									"destination" : [ "obj-6", 0 ],
									"hidden" : 0,
									"midpoints" : [  ]
								}

							}
, 							{
								"patchline" : 								{
									"source" : [ "obj-6", 0 ],
									"destination" : [ "obj-11", 0 ],
									"hidden" : 0,
									"midpoints" : [  ]
								}

							}
 ]
					}
,
					"saved_object_attributes" : 					{
						"default_fontname" : "Arial",
						"default_fontsize" : 12.0,
						"fontname" : "Arial",
						"globalpatchername" : "",
						"fontface" : 0,
						"default_fontface" : 0,
						"fontsize" : 12.0
					}

				}

			}
, 			{
				"box" : 				{
					"maxclass" : "umenu",
					"varname" : "inputSelectMenu",
					"items" : [ "defaultAudioInput", ",", "soft66lc2", ",", "funCube", ",", "10meter96.wav", ",", "6meter96.wav", ",", "am96.wav", ",", "ao4096.wav", ",", "fmWeather96b.wav", ",", "numbers96.wav" ],
					"types" : [  ],
					"numinlets" : 1,
					"bgcolor" : [ 0.678431, 0.819608, 0.819608, 1.0 ],
					"numoutlets" : 3,
					"id" : "obj-1",
					"fontname" : "Arial",
					"patching_rect" : [ 48.388916, 73.0, 191.0, 24.0 ],
					"outlettype" : [ "int", "", "" ],
					"fontsize" : 15.0,
					"autopopulate" : 1
				}

			}
, 			{
				"box" : 				{
					"maxclass" : "newobj",
					"text" : "p select_input",
					"numinlets" : 2,
					"numoutlets" : 2,
					"id" : "obj-174",
					"fontname" : "Arial",
					"patching_rect" : [ 47.611084, 102.0, 85.0, 20.0 ],
					"outlettype" : [ "signal", "signal" ],
					"fontsize" : 12.0,
					"patcher" : 					{
						"fileversion" : 1,
						"rect" : [ 286.0, 58.0, 651.0, 628.0 ],
						"bglocked" : 0,
						"defrect" : [ 286.0, 58.0, 651.0, 628.0 ],
						"openrect" : [ 0.0, 0.0, 0.0, 0.0 ],
						"openinpresentation" : 0,
						"default_fontsize" : 12.0,
						"default_fontface" : 0,
						"default_fontname" : "Arial",
						"gridonopen" : 0,
						"gridsize" : [ 15.0, 15.0 ],
						"gridsnaponopen" : 0,
						"toolbarvisible" : 1,
						"boxanimatetime" : 200,
						"imprint" : 0,
						"enablehscroll" : 1,
						"enablevscroll" : 1,
						"devicewidth" : 0.0,
						"boxes" : [ 							{
								"box" : 								{
									"maxclass" : "comment",
									"text" : "apparently there is no way to check programmatically whether a file actually gets opened???",
									"linecount" : 4,
									"numinlets" : 1,
									"numoutlets" : 0,
									"id" : "obj-19",
									"fontname" : "Arial",
									"patching_rect" : [ 374.0, 497.0, 160.0, 62.0 ],
									"fontsize" : 12.0
								}

							}
, 							{
								"box" : 								{
									"maxclass" : "comment",
									"text" : "this will be used to\nopen correct device in tuning patcher",
									"linecount" : 3,
									"numinlets" : 1,
									"numoutlets" : 0,
									"id" : "obj-17",
									"fontname" : "Arial",
									"patching_rect" : [ 31.0, 107.0, 150.0, 48.0 ],
									"fontsize" : 12.0
								}

							}
, 							{
								"box" : 								{
									"maxclass" : "newobj",
									"text" : "send device_index",
									"numinlets" : 1,
									"numoutlets" : 0,
									"id" : "obj-15",
									"fontname" : "Arial",
									"patching_rect" : [ 48.0, 83.0, 110.0, 20.0 ],
									"fontsize" : 12.0
								}

							}
, 							{
								"box" : 								{
									"maxclass" : "comment",
									"text" : "for now, just lump all devices into adc input - later we might be able to actually search the device in the max device list",
									"linecount" : 5,
									"numinlets" : 1,
									"numoutlets" : 0,
									"id" : "obj-13",
									"fontname" : "Arial",
									"patching_rect" : [ 409.0, 235.0, 150.0, 75.0 ],
									"fontsize" : 12.0
								}

							}
, 							{
								"box" : 								{
									"maxclass" : "button",
									"numinlets" : 1,
									"numoutlets" : 1,
									"id" : "obj-7",
									"patching_rect" : [ 244.0, 160.0, 20.0, 20.0 ],
									"outlettype" : [ "bang" ]
								}

							}
, 							{
								"box" : 								{
									"maxclass" : "newobj",
									"text" : "select 0 1 2",
									"numinlets" : 1,
									"numoutlets" : 4,
									"id" : "obj-3",
									"fontname" : "Arial",
									"patching_rect" : [ 277.0, 96.0, 89.0, 20.0 ],
									"outlettype" : [ "bang", "bang", "bang", "" ],
									"fontsize" : 12.0
								}

							}
, 							{
								"box" : 								{
									"maxclass" : "comment",
									"text" : "assumes that if menu index = 0 through 2, we are selecting default audio input or an actual device - otherwise opening the filename in menu text",
									"linecount" : 5,
									"numinlets" : 1,
									"numoutlets" : 0,
									"id" : "obj-27",
									"fontname" : "Arial",
									"patching_rect" : [ 401.0, 140.0, 196.0, 75.0 ],
									"fontsize" : 12.0
								}

							}
, 							{
								"box" : 								{
									"maxclass" : "comment",
									"text" : "menu text",
									"numinlets" : 1,
									"numoutlets" : 0,
									"id" : "obj-25",
									"fontname" : "Arial",
									"patching_rect" : [ 242.0, 14.0, 150.0, 20.0 ],
									"fontsize" : 12.0
								}

							}
, 							{
								"box" : 								{
									"maxclass" : "comment",
									"text" : "menu index",
									"numinlets" : 1,
									"numoutlets" : 0,
									"id" : "obj-23",
									"fontname" : "Arial",
									"patching_rect" : [ 126.0, 13.0, 83.0, 20.0 ],
									"fontsize" : 12.0
								}

							}
, 							{
								"box" : 								{
									"maxclass" : "inlet",
									"numinlets" : 0,
									"numoutlets" : 1,
									"id" : "obj-21",
									"patching_rect" : [ 267.0, 39.0, 25.0, 25.0 ],
									"outlettype" : [ "" ],
									"comment" : ""
								}

							}
, 							{
								"box" : 								{
									"maxclass" : "inlet",
									"numinlets" : 0,
									"numoutlets" : 1,
									"id" : "obj-20",
									"patching_rect" : [ 160.0, 38.0, 25.0, 25.0 ],
									"outlettype" : [ "int" ],
									"comment" : ""
								}

							}
, 							{
								"box" : 								{
									"maxclass" : "newobj",
									"text" : "adc~",
									"numinlets" : 1,
									"numoutlets" : 2,
									"id" : "obj-194",
									"fontname" : "Arial",
									"patching_rect" : [ 174.0, 496.0, 37.0, 20.0 ],
									"outlettype" : [ "signal", "signal" ],
									"fontsize" : 12.0
								}

							}
, 							{
								"box" : 								{
									"maxclass" : "comment",
									"text" : "radio",
									"numinlets" : 1,
									"numoutlets" : 0,
									"id" : "obj-141",
									"fontname" : "Arial",
									"patching_rect" : [ 122.0, 353.0, 44.0, 20.0 ],
									"fontsize" : 12.0
								}

							}
, 							{
								"box" : 								{
									"maxclass" : "comment",
									"text" : "file",
									"numinlets" : 1,
									"numoutlets" : 0,
									"id" : "obj-132",
									"fontname" : "Arial",
									"patching_rect" : [ 182.0, 351.0, 40.0, 20.0 ],
									"fontsize" : 12.0
								}

							}
, 							{
								"box" : 								{
									"maxclass" : "message",
									"text" : "1",
									"numinlets" : 2,
									"numoutlets" : 1,
									"id" : "obj-128",
									"fontname" : "Arial",
									"patching_rect" : [ 130.111084, 329.0, 32.5, 18.0 ],
									"outlettype" : [ "" ],
									"fontsize" : 12.0
								}

							}
, 							{
								"box" : 								{
									"maxclass" : "message",
									"text" : "2",
									"numinlets" : 2,
									"numoutlets" : 1,
									"id" : "obj-130",
									"fontname" : "Arial",
									"patching_rect" : [ 169.111084, 327.0, 32.5, 18.0 ],
									"outlettype" : [ "" ],
									"fontsize" : 12.0
								}

							}
, 							{
								"box" : 								{
									"maxclass" : "newobj",
									"text" : "p input_select",
									"numinlets" : 5,
									"numoutlets" : 2,
									"id" : "obj-126",
									"fontname" : "Arial",
									"patching_rect" : [ 158.0, 541.0, 85.0, 20.0 ],
									"outlettype" : [ "signal", "signal" ],
									"fontsize" : 12.0,
									"patcher" : 									{
										"fileversion" : 1,
										"rect" : [ 29.0, 67.0, 486.0, 458.0 ],
										"bglocked" : 0,
										"defrect" : [ 29.0, 67.0, 486.0, 458.0 ],
										"openrect" : [ 0.0, 0.0, 0.0, 0.0 ],
										"openinpresentation" : 0,
										"default_fontsize" : 12.0,
										"default_fontface" : 0,
										"default_fontname" : "Arial",
										"gridonopen" : 0,
										"gridsize" : [ 15.0, 15.0 ],
										"gridsnaponopen" : 0,
										"toolbarvisible" : 1,
										"boxanimatetime" : 200,
										"imprint" : 0,
										"enablehscroll" : 1,
										"enablevscroll" : 1,
										"devicewidth" : 0.0,
										"boxes" : [ 											{
												"box" : 												{
													"maxclass" : "comment",
													"text" : "select: 0=off, 1=ch1, 2= ch2",
													"linecount" : 2,
													"numinlets" : 1,
													"numoutlets" : 0,
													"id" : "obj-16",
													"fontname" : "Arial",
													"patching_rect" : [ 31.0, 40.0, 150.0, 34.0 ],
													"fontsize" : 12.0
												}

											}
, 											{
												"box" : 												{
													"maxclass" : "comment",
													"text" : "channel 2",
													"numinlets" : 1,
													"numoutlets" : 0,
													"id" : "obj-14",
													"fontname" : "Arial",
													"patching_rect" : [ 361.0, 52.0, 71.0, 20.0 ],
													"fontsize" : 12.0
												}

											}
, 											{
												"box" : 												{
													"maxclass" : "comment",
													"text" : "channel 1",
													"numinlets" : 1,
													"numoutlets" : 0,
													"id" : "obj-13",
													"fontname" : "Arial",
													"patching_rect" : [ 214.0, 54.0, 71.0, 20.0 ],
													"fontsize" : 12.0
												}

											}
, 											{
												"box" : 												{
													"maxclass" : "inlet",
													"numinlets" : 0,
													"numoutlets" : 1,
													"id" : "obj-11",
													"patching_rect" : [ 416.0, 83.0, 25.0, 25.0 ],
													"outlettype" : [ "signal" ],
													"comment" : ""
												}

											}
, 											{
												"box" : 												{
													"maxclass" : "inlet",
													"numinlets" : 0,
													"numoutlets" : 1,
													"id" : "obj-10",
													"patching_rect" : [ 342.0, 82.0, 25.0, 25.0 ],
													"outlettype" : [ "signal" ],
													"comment" : ""
												}

											}
, 											{
												"box" : 												{
													"maxclass" : "comment",
													"text" : "stereo input selector",
													"numinlets" : 1,
													"numoutlets" : 0,
													"id" : "obj-9",
													"fontname" : "Arial",
													"patching_rect" : [ 146.0, 10.0, 150.0, 20.0 ],
													"fontsize" : 12.0
												}

											}
, 											{
												"box" : 												{
													"maxclass" : "newobj",
													"text" : "selector~ 2",
													"numinlets" : 3,
													"numoutlets" : 1,
													"id" : "obj-7",
													"fontname" : "Arial",
													"patching_rect" : [ 217.0, 217.0, 70.0, 20.0 ],
													"outlettype" : [ "signal" ],
													"fontsize" : 12.0
												}

											}
, 											{
												"box" : 												{
													"maxclass" : "newobj",
													"text" : "selector~ 2",
													"numinlets" : 3,
													"numoutlets" : 1,
													"id" : "obj-6",
													"fontname" : "Arial",
													"patching_rect" : [ 134.0, 219.0, 70.0, 20.0 ],
													"outlettype" : [ "signal" ],
													"fontsize" : 12.0
												}

											}
, 											{
												"box" : 												{
													"maxclass" : "outlet",
													"numinlets" : 1,
													"numoutlets" : 0,
													"id" : "obj-5",
													"patching_rect" : [ 219.0, 399.0, 25.0, 25.0 ],
													"comment" : ""
												}

											}
, 											{
												"box" : 												{
													"maxclass" : "outlet",
													"numinlets" : 1,
													"numoutlets" : 0,
													"id" : "obj-4",
													"patching_rect" : [ 132.0, 400.0, 25.0, 25.0 ],
													"comment" : ""
												}

											}
, 											{
												"box" : 												{
													"maxclass" : "inlet",
													"numinlets" : 0,
													"numoutlets" : 1,
													"id" : "obj-3",
													"patching_rect" : [ 272.0, 82.0, 25.0, 25.0 ],
													"outlettype" : [ "signal" ],
													"comment" : ""
												}

											}
, 											{
												"box" : 												{
													"maxclass" : "inlet",
													"numinlets" : 0,
													"numoutlets" : 1,
													"id" : "obj-2",
													"patching_rect" : [ 196.0, 81.0, 25.0, 25.0 ],
													"outlettype" : [ "signal" ],
													"comment" : ""
												}

											}
, 											{
												"box" : 												{
													"maxclass" : "inlet",
													"numinlets" : 0,
													"numoutlets" : 1,
													"id" : "obj-1",
													"patching_rect" : [ 121.0, 81.0, 25.0, 25.0 ],
													"outlettype" : [ "" ],
													"comment" : ""
												}

											}
 ],
										"lines" : [ 											{
												"patchline" : 												{
													"source" : [ "obj-2", 0 ],
													"destination" : [ "obj-6", 1 ],
													"hidden" : 0,
													"midpoints" : [  ]
												}

											}
, 											{
												"patchline" : 												{
													"source" : [ "obj-10", 0 ],
													"destination" : [ "obj-6", 2 ],
													"hidden" : 0,
													"midpoints" : [  ]
												}

											}
, 											{
												"patchline" : 												{
													"source" : [ "obj-3", 0 ],
													"destination" : [ "obj-7", 1 ],
													"hidden" : 0,
													"midpoints" : [  ]
												}

											}
, 											{
												"patchline" : 												{
													"source" : [ "obj-11", 0 ],
													"destination" : [ "obj-7", 2 ],
													"hidden" : 0,
													"midpoints" : [  ]
												}

											}
, 											{
												"patchline" : 												{
													"source" : [ "obj-6", 0 ],
													"destination" : [ "obj-4", 0 ],
													"hidden" : 0,
													"midpoints" : [  ]
												}

											}
, 											{
												"patchline" : 												{
													"source" : [ "obj-7", 0 ],
													"destination" : [ "obj-5", 0 ],
													"hidden" : 0,
													"midpoints" : [  ]
												}

											}
, 											{
												"patchline" : 												{
													"source" : [ "obj-1", 0 ],
													"destination" : [ "obj-6", 0 ],
													"hidden" : 0,
													"midpoints" : [  ]
												}

											}
, 											{
												"patchline" : 												{
													"source" : [ "obj-1", 0 ],
													"destination" : [ "obj-7", 0 ],
													"hidden" : 0,
													"midpoints" : [  ]
												}

											}
 ]
									}
,
									"saved_object_attributes" : 									{
										"default_fontname" : "Arial",
										"default_fontsize" : 12.0,
										"fontname" : "Arial",
										"globalpatchername" : "",
										"fontface" : 0,
										"default_fontface" : 0,
										"fontsize" : 12.0
									}

								}

							}
, 							{
								"box" : 								{
									"maxclass" : "message",
									"text" : "defaultAudioInput",
									"numinlets" : 2,
									"numoutlets" : 1,
									"id" : "obj-14",
									"fontname" : "Arial",
									"patching_rect" : [ 13.0, 186.0, 204.0, 18.0 ],
									"outlettype" : [ "" ],
									"fontsize" : 12.0
								}

							}
, 							{
								"box" : 								{
									"maxclass" : "message",
									"text" : "0",
									"numinlets" : 2,
									"numoutlets" : 1,
									"id" : "obj-12",
									"fontname" : "Arial",
									"patching_rect" : [ 277.0, 230.0, 32.5, 18.0 ],
									"outlettype" : [ "" ],
									"fontsize" : 12.0
								}

							}
, 							{
								"box" : 								{
									"maxclass" : "message",
									"text" : "1",
									"numinlets" : 2,
									"numoutlets" : 1,
									"id" : "obj-8",
									"fontname" : "Arial",
									"patching_rect" : [ 320.0, 228.0, 32.5, 18.0 ],
									"outlettype" : [ "" ],
									"fontsize" : 12.0
								}

							}
, 							{
								"box" : 								{
									"maxclass" : "newobj",
									"text" : "gate",
									"numinlets" : 2,
									"numoutlets" : 1,
									"id" : "obj-6",
									"fontname" : "Arial",
									"patching_rect" : [ 321.0, 273.0, 34.0, 20.0 ],
									"outlettype" : [ "" ],
									"fontsize" : 12.0
								}

							}
, 							{
								"box" : 								{
									"maxclass" : "message",
									"text" : "open 10meter96.wav, offset 200, loop 1, 1",
									"linecount" : 2,
									"numinlets" : 2,
									"numoutlets" : 1,
									"id" : "obj-112",
									"fontname" : "Arial",
									"patching_rect" : [ 301.0, 357.0, 228.0, 32.0 ],
									"outlettype" : [ "" ],
									"fontsize" : 12.0
								}

							}
, 							{
								"box" : 								{
									"maxclass" : "newobj",
									"text" : "pak open file \\, offset 200 \\, loop 1 \\, 1",
									"numinlets" : 10,
									"numoutlets" : 1,
									"id" : "obj-110",
									"fontname" : "Arial",
									"patching_rect" : [ 301.0, 325.0, 210.0, 20.0 ],
									"outlettype" : [ "" ],
									"fontsize" : 12.0
								}

							}
, 							{
								"box" : 								{
									"maxclass" : "comment",
									"text" : "start playback",
									"numinlets" : 1,
									"numoutlets" : 0,
									"id" : "obj-52",
									"fontname" : "Arial",
									"patching_rect" : [ 409.5, 435.0, 91.0, 20.0 ],
									"fontsize" : 12.0
								}

							}
, 							{
								"box" : 								{
									"maxclass" : "comment",
									"text" : "stop playback",
									"numinlets" : 1,
									"numoutlets" : 0,
									"id" : "obj-49",
									"fontname" : "Arial",
									"patching_rect" : [ 410.5, 412.0, 88.0, 20.0 ],
									"fontsize" : 12.0
								}

							}
, 							{
								"box" : 								{
									"maxclass" : "message",
									"text" : "0",
									"numinlets" : 2,
									"numoutlets" : 1,
									"id" : "obj-10",
									"fontname" : "Arial",
									"patching_rect" : [ 372.5, 412.0, 32.5, 18.0 ],
									"outlettype" : [ "" ],
									"fontsize" : 12.0
								}

							}
, 							{
								"box" : 								{
									"maxclass" : "message",
									"text" : "1",
									"numinlets" : 2,
									"numoutlets" : 1,
									"id" : "obj-9",
									"fontname" : "Arial",
									"patching_rect" : [ 371.5, 436.0, 32.5, 18.0 ],
									"outlettype" : [ "" ],
									"fontsize" : 12.0
								}

							}
, 							{
								"box" : 								{
									"maxclass" : "newobj",
									"text" : "sfplay~ 2",
									"numinlets" : 2,
									"numoutlets" : 3,
									"id" : "obj-1",
									"fontname" : "Arial",
									"patching_rect" : [ 355.5, 460.0, 59.0, 20.0 ],
									"outlettype" : [ "signal", "signal", "bang" ],
									"fontsize" : 12.0,
									"save" : [ "#N", "sfplay~", "", 2, 120960, 0, "", ";" ]
								}

							}
, 							{
								"box" : 								{
									"maxclass" : "outlet",
									"numinlets" : 1,
									"numoutlets" : 0,
									"id" : "obj-28",
									"patching_rect" : [ 157.5, 584.0, 25.0, 25.0 ],
									"comment" : ""
								}

							}
, 							{
								"box" : 								{
									"maxclass" : "outlet",
									"numinlets" : 1,
									"numoutlets" : 0,
									"id" : "obj-163",
									"patching_rect" : [ 223.5, 582.0, 25.0, 25.0 ],
									"comment" : ""
								}

							}
 ],
						"lines" : [ 							{
								"patchline" : 								{
									"source" : [ "obj-9", 0 ],
									"destination" : [ "obj-1", 0 ],
									"hidden" : 0,
									"midpoints" : [  ]
								}

							}
, 							{
								"patchline" : 								{
									"source" : [ "obj-112", 0 ],
									"destination" : [ "obj-1", 0 ],
									"hidden" : 0,
									"midpoints" : [  ]
								}

							}
, 							{
								"patchline" : 								{
									"source" : [ "obj-110", 0 ],
									"destination" : [ "obj-112", 0 ],
									"hidden" : 0,
									"midpoints" : [  ]
								}

							}
, 							{
								"patchline" : 								{
									"source" : [ "obj-110", 0 ],
									"destination" : [ "obj-112", 1 ],
									"hidden" : 0,
									"midpoints" : [  ]
								}

							}
, 							{
								"patchline" : 								{
									"source" : [ "obj-10", 0 ],
									"destination" : [ "obj-1", 0 ],
									"hidden" : 0,
									"midpoints" : [  ]
								}

							}
, 							{
								"patchline" : 								{
									"source" : [ "obj-8", 0 ],
									"destination" : [ "obj-6", 0 ],
									"hidden" : 0,
									"midpoints" : [  ]
								}

							}
, 							{
								"patchline" : 								{
									"source" : [ "obj-14", 0 ],
									"destination" : [ "obj-6", 1 ],
									"hidden" : 0,
									"midpoints" : [  ]
								}

							}
, 							{
								"patchline" : 								{
									"source" : [ "obj-6", 0 ],
									"destination" : [ "obj-110", 1 ],
									"hidden" : 0,
									"midpoints" : [  ]
								}

							}
, 							{
								"patchline" : 								{
									"source" : [ "obj-194", 1 ],
									"destination" : [ "obj-126", 2 ],
									"hidden" : 0,
									"midpoints" : [  ]
								}

							}
, 							{
								"patchline" : 								{
									"source" : [ "obj-194", 0 ],
									"destination" : [ "obj-126", 1 ],
									"hidden" : 0,
									"midpoints" : [  ]
								}

							}
, 							{
								"patchline" : 								{
									"source" : [ "obj-130", 0 ],
									"destination" : [ "obj-126", 0 ],
									"hidden" : 0,
									"midpoints" : [  ]
								}

							}
, 							{
								"patchline" : 								{
									"source" : [ "obj-128", 0 ],
									"destination" : [ "obj-126", 0 ],
									"hidden" : 0,
									"midpoints" : [  ]
								}

							}
, 							{
								"patchline" : 								{
									"source" : [ "obj-1", 0 ],
									"destination" : [ "obj-126", 3 ],
									"hidden" : 0,
									"midpoints" : [  ]
								}

							}
, 							{
								"patchline" : 								{
									"source" : [ "obj-1", 1 ],
									"destination" : [ "obj-126", 4 ],
									"hidden" : 0,
									"midpoints" : [  ]
								}

							}
, 							{
								"patchline" : 								{
									"source" : [ "obj-12", 0 ],
									"destination" : [ "obj-6", 0 ],
									"hidden" : 0,
									"midpoints" : [  ]
								}

							}
, 							{
								"patchline" : 								{
									"source" : [ "obj-126", 0 ],
									"destination" : [ "obj-28", 0 ],
									"hidden" : 0,
									"midpoints" : [  ]
								}

							}
, 							{
								"patchline" : 								{
									"source" : [ "obj-126", 1 ],
									"destination" : [ "obj-163", 0 ],
									"hidden" : 0,
									"midpoints" : [  ]
								}

							}
, 							{
								"patchline" : 								{
									"source" : [ "obj-21", 0 ],
									"destination" : [ "obj-14", 1 ],
									"hidden" : 0,
									"midpoints" : [  ]
								}

							}
, 							{
								"patchline" : 								{
									"source" : [ "obj-3", 3 ],
									"destination" : [ "obj-8", 0 ],
									"hidden" : 0,
									"midpoints" : [  ]
								}

							}
, 							{
								"patchline" : 								{
									"source" : [ "obj-3", 3 ],
									"destination" : [ "obj-130", 0 ],
									"hidden" : 0,
									"midpoints" : [  ]
								}

							}
, 							{
								"patchline" : 								{
									"source" : [ "obj-3", 3 ],
									"destination" : [ "obj-14", 0 ],
									"hidden" : 0,
									"midpoints" : [  ]
								}

							}
, 							{
								"patchline" : 								{
									"source" : [ "obj-3", 0 ],
									"destination" : [ "obj-7", 0 ],
									"hidden" : 0,
									"midpoints" : [  ]
								}

							}
, 							{
								"patchline" : 								{
									"source" : [ "obj-3", 1 ],
									"destination" : [ "obj-7", 0 ],
									"hidden" : 0,
									"midpoints" : [  ]
								}

							}
, 							{
								"patchline" : 								{
									"source" : [ "obj-3", 2 ],
									"destination" : [ "obj-7", 0 ],
									"hidden" : 0,
									"midpoints" : [  ]
								}

							}
, 							{
								"patchline" : 								{
									"source" : [ "obj-7", 0 ],
									"destination" : [ "obj-12", 0 ],
									"hidden" : 0,
									"midpoints" : [  ]
								}

							}
, 							{
								"patchline" : 								{
									"source" : [ "obj-7", 0 ],
									"destination" : [ "obj-128", 0 ],
									"hidden" : 0,
									"midpoints" : [  ]
								}

							}
, 							{
								"patchline" : 								{
									"source" : [ "obj-20", 0 ],
									"destination" : [ "obj-3", 0 ],
									"hidden" : 0,
									"midpoints" : [  ]
								}

							}
, 							{
								"patchline" : 								{
									"source" : [ "obj-20", 0 ],
									"destination" : [ "obj-15", 0 ],
									"hidden" : 0,
									"midpoints" : [  ]
								}

							}
 ]
					}
,
					"saved_object_attributes" : 					{
						"default_fontname" : "Arial",
						"default_fontsize" : 12.0,
						"fontname" : "Arial",
						"globalpatchername" : "",
						"fontface" : 0,
						"default_fontface" : 0,
						"fontsize" : 12.0
					}

				}

			}
, 			{
				"box" : 				{
					"maxclass" : "newobj",
					"text" : "p cmul~",
					"numinlets" : 4,
					"numoutlets" : 2,
					"id" : "obj-118",
					"fontname" : "Arial",
					"patching_rect" : [ 359.0, 341.0, 120.0, 20.0 ],
					"outlettype" : [ "signal", "signal" ],
					"fontsize" : 12.0,
					"patcher" : 					{
						"fileversion" : 1,
						"rect" : [ 29.0, 67.0, 345.0, 386.0 ],
						"bglocked" : 0,
						"defrect" : [ 29.0, 67.0, 345.0, 386.0 ],
						"openrect" : [ 0.0, 0.0, 0.0, 0.0 ],
						"openinpresentation" : 0,
						"default_fontsize" : 12.0,
						"default_fontface" : 0,
						"default_fontname" : "Arial",
						"gridonopen" : 0,
						"gridsize" : [ 15.0, 15.0 ],
						"gridsnaponopen" : 0,
						"toolbarvisible" : 1,
						"boxanimatetime" : 200,
						"imprint" : 0,
						"enablehscroll" : 1,
						"enablevscroll" : 1,
						"devicewidth" : 0.0,
						"boxes" : [ 							{
								"box" : 								{
									"maxclass" : "comment",
									"text" : "di",
									"numinlets" : 1,
									"numoutlets" : 0,
									"id" : "obj-1",
									"fontname" : "Arial",
									"patching_rect" : [ 215.0, 128.0, 18.0, 17.0 ],
									"fontsize" : 9.0
								}

							}
, 							{
								"box" : 								{
									"maxclass" : "comment",
									"text" : "c",
									"numinlets" : 1,
									"numoutlets" : 0,
									"id" : "obj-2",
									"fontname" : "Arial",
									"patching_rect" : [ 174.0, 128.0, 18.0, 17.0 ],
									"fontsize" : 9.0
								}

							}
, 							{
								"box" : 								{
									"maxclass" : "comment",
									"text" : "bi",
									"numinlets" : 1,
									"numoutlets" : 0,
									"id" : "obj-3",
									"fontname" : "Arial",
									"patching_rect" : [ 128.0, 128.0, 18.0, 17.0 ],
									"fontsize" : 9.0
								}

							}
, 							{
								"box" : 								{
									"maxclass" : "comment",
									"text" : "a",
									"numinlets" : 1,
									"numoutlets" : 0,
									"id" : "obj-4",
									"fontname" : "Arial",
									"patching_rect" : [ 87.0, 128.0, 18.0, 17.0 ],
									"fontsize" : 9.0
								}

							}
, 							{
								"box" : 								{
									"maxclass" : "outlet",
									"numinlets" : 1,
									"numoutlets" : 0,
									"id" : "obj-5",
									"patching_rect" : [ 165.0, 280.0, 15.0, 15.0 ],
									"comment" : ""
								}

							}
, 							{
								"box" : 								{
									"maxclass" : "outlet",
									"numinlets" : 1,
									"numoutlets" : 0,
									"id" : "obj-6",
									"patching_rect" : [ 76.0, 280.0, 15.0, 15.0 ],
									"comment" : ""
								}

							}
, 							{
								"box" : 								{
									"maxclass" : "inlet",
									"numinlets" : 0,
									"numoutlets" : 1,
									"id" : "obj-7",
									"patching_rect" : [ 208.0, 143.0, 15.0, 15.0 ],
									"outlettype" : [ "signal" ],
									"comment" : ""
								}

							}
, 							{
								"box" : 								{
									"maxclass" : "inlet",
									"numinlets" : 0,
									"numoutlets" : 1,
									"id" : "obj-8",
									"patching_rect" : [ 165.0, 143.0, 15.0, 15.0 ],
									"outlettype" : [ "signal" ],
									"comment" : ""
								}

							}
, 							{
								"box" : 								{
									"maxclass" : "inlet",
									"numinlets" : 0,
									"numoutlets" : 1,
									"id" : "obj-9",
									"patching_rect" : [ 119.0, 143.0, 15.0, 15.0 ],
									"outlettype" : [ "signal" ],
									"comment" : ""
								}

							}
, 							{
								"box" : 								{
									"maxclass" : "inlet",
									"numinlets" : 0,
									"numoutlets" : 1,
									"id" : "obj-10",
									"patching_rect" : [ 76.0, 143.0, 15.0, 15.0 ],
									"outlettype" : [ "signal" ],
									"comment" : ""
								}

							}
, 							{
								"box" : 								{
									"maxclass" : "comment",
									"text" : "(ad+bc)i",
									"numinlets" : 1,
									"numoutlets" : 0,
									"id" : "obj-11",
									"fontname" : "Arial",
									"patching_rect" : [ 175.0, 260.0, 45.0, 17.0 ],
									"fontsize" : 9.0
								}

							}
, 							{
								"box" : 								{
									"maxclass" : "comment",
									"text" : "(ac-bd)",
									"numinlets" : 1,
									"numoutlets" : 0,
									"id" : "obj-12",
									"fontname" : "Arial",
									"patching_rect" : [ 88.0, 260.0, 41.0, 17.0 ],
									"fontsize" : 9.0
								}

							}
, 							{
								"box" : 								{
									"maxclass" : "comment",
									"text" : "(bi)(di) = -bd",
									"linecount" : 2,
									"numinlets" : 1,
									"numoutlets" : 0,
									"id" : "obj-13",
									"fontname" : "Arial",
									"patching_rect" : [ 123.0, 217.0, 37.0, 27.0 ],
									"fontsize" : 9.0
								}

							}
, 							{
								"box" : 								{
									"maxclass" : "comment",
									"text" : "bci",
									"numinlets" : 1,
									"numoutlets" : 0,
									"id" : "obj-14",
									"fontname" : "Arial",
									"patching_rect" : [ 177.0, 218.0, 21.0, 17.0 ],
									"fontsize" : 9.0
								}

							}
, 							{
								"box" : 								{
									"maxclass" : "comment",
									"text" : "adi",
									"numinlets" : 1,
									"numoutlets" : 0,
									"id" : "obj-15",
									"fontname" : "Arial",
									"patching_rect" : [ 216.0, 218.0, 21.0, 17.0 ],
									"fontsize" : 9.0
								}

							}
, 							{
								"box" : 								{
									"maxclass" : "newobj",
									"text" : "-~",
									"numinlets" : 2,
									"numoutlets" : 1,
									"id" : "obj-16",
									"fontname" : "Arial",
									"patching_rect" : [ 76.0, 241.0, 27.0, 17.0 ],
									"outlettype" : [ "signal" ],
									"fontsize" : 9.0
								}

							}
, 							{
								"box" : 								{
									"maxclass" : "newobj",
									"text" : "+~",
									"numinlets" : 2,
									"numoutlets" : 1,
									"id" : "obj-17",
									"fontname" : "Arial",
									"patching_rect" : [ 165.0, 241.0, 27.0, 17.0 ],
									"outlettype" : [ "signal" ],
									"fontsize" : 9.0
								}

							}
, 							{
								"box" : 								{
									"maxclass" : "newobj",
									"text" : "*~",
									"numinlets" : 2,
									"numoutlets" : 1,
									"id" : "obj-18",
									"fontname" : "Arial",
									"patching_rect" : [ 208.0, 198.0, 27.0, 17.0 ],
									"outlettype" : [ "signal" ],
									"fontsize" : 9.0
								}

							}
, 							{
								"box" : 								{
									"maxclass" : "newobj",
									"text" : "*~",
									"numinlets" : 2,
									"numoutlets" : 1,
									"id" : "obj-19",
									"fontname" : "Arial",
									"patching_rect" : [ 165.0, 198.0, 27.0, 17.0 ],
									"outlettype" : [ "signal" ],
									"fontsize" : 9.0
								}

							}
, 							{
								"box" : 								{
									"maxclass" : "newobj",
									"text" : "*~",
									"numinlets" : 2,
									"numoutlets" : 1,
									"id" : "obj-20",
									"fontname" : "Arial",
									"patching_rect" : [ 119.0, 198.0, 27.0, 17.0 ],
									"outlettype" : [ "signal" ],
									"fontsize" : 9.0
								}

							}
, 							{
								"box" : 								{
									"maxclass" : "newobj",
									"text" : "*~",
									"numinlets" : 2,
									"numoutlets" : 1,
									"id" : "obj-21",
									"fontname" : "Arial",
									"patching_rect" : [ 76.0, 198.0, 27.0, 17.0 ],
									"outlettype" : [ "signal" ],
									"fontsize" : 9.0
								}

							}
, 							{
								"box" : 								{
									"maxclass" : "comment",
									"text" : "ac",
									"numinlets" : 1,
									"numoutlets" : 0,
									"id" : "obj-22",
									"fontname" : "Arial",
									"patching_rect" : [ 86.0, 217.0, 18.0, 17.0 ],
									"fontsize" : 9.0
								}

							}
 ],
						"lines" : [ 							{
								"patchline" : 								{
									"source" : [ "obj-10", 0 ],
									"destination" : [ "obj-18", 1 ],
									"hidden" : 0,
									"midpoints" : [  ]
								}

							}
, 							{
								"patchline" : 								{
									"source" : [ "obj-10", 0 ],
									"destination" : [ "obj-21", 0 ],
									"hidden" : 0,
									"midpoints" : [  ]
								}

							}
, 							{
								"patchline" : 								{
									"source" : [ "obj-16", 0 ],
									"destination" : [ "obj-6", 0 ],
									"hidden" : 0,
									"midpoints" : [  ]
								}

							}
, 							{
								"patchline" : 								{
									"source" : [ "obj-17", 0 ],
									"destination" : [ "obj-5", 0 ],
									"hidden" : 0,
									"midpoints" : [  ]
								}

							}
, 							{
								"patchline" : 								{
									"source" : [ "obj-18", 0 ],
									"destination" : [ "obj-17", 1 ],
									"hidden" : 0,
									"midpoints" : [  ]
								}

							}
, 							{
								"patchline" : 								{
									"source" : [ "obj-19", 0 ],
									"destination" : [ "obj-17", 0 ],
									"hidden" : 0,
									"midpoints" : [  ]
								}

							}
, 							{
								"patchline" : 								{
									"source" : [ "obj-20", 0 ],
									"destination" : [ "obj-16", 1 ],
									"hidden" : 0,
									"midpoints" : [  ]
								}

							}
, 							{
								"patchline" : 								{
									"source" : [ "obj-21", 0 ],
									"destination" : [ "obj-16", 0 ],
									"hidden" : 0,
									"midpoints" : [  ]
								}

							}
, 							{
								"patchline" : 								{
									"source" : [ "obj-7", 0 ],
									"destination" : [ "obj-18", 0 ],
									"hidden" : 0,
									"midpoints" : [  ]
								}

							}
, 							{
								"patchline" : 								{
									"source" : [ "obj-7", 0 ],
									"destination" : [ "obj-20", 1 ],
									"hidden" : 0,
									"midpoints" : [  ]
								}

							}
, 							{
								"patchline" : 								{
									"source" : [ "obj-8", 0 ],
									"destination" : [ "obj-19", 0 ],
									"hidden" : 0,
									"midpoints" : [  ]
								}

							}
, 							{
								"patchline" : 								{
									"source" : [ "obj-8", 0 ],
									"destination" : [ "obj-21", 1 ],
									"hidden" : 0,
									"midpoints" : [  ]
								}

							}
, 							{
								"patchline" : 								{
									"source" : [ "obj-9", 0 ],
									"destination" : [ "obj-19", 1 ],
									"hidden" : 0,
									"midpoints" : [  ]
								}

							}
, 							{
								"patchline" : 								{
									"source" : [ "obj-9", 0 ],
									"destination" : [ "obj-20", 0 ],
									"hidden" : 0,
									"midpoints" : [  ]
								}

							}
 ]
					}
,
					"saved_object_attributes" : 					{
						"default_fontname" : "Arial",
						"default_fontsize" : 12.0,
						"fontname" : "Arial",
						"globalpatchername" : "",
						"fontface" : 0,
						"default_fontface" : 0,
						"fontsize" : 12.0
					}

				}

			}
, 			{
				"box" : 				{
					"maxclass" : "newobj",
					"text" : "*~ 1.",
					"numinlets" : 2,
					"numoutlets" : 1,
					"id" : "obj-69",
					"fontname" : "Arial",
					"patching_rect" : [ 283.0, 255.0, 36.0, 20.0 ],
					"outlettype" : [ "signal" ],
					"fontsize" : 12.0
				}

			}
, 			{
				"box" : 				{
					"maxclass" : "comment",
					"text" : "audio on/off",
					"numinlets" : 1,
					"numoutlets" : 0,
					"id" : "obj-58",
					"fontname" : "Arial",
					"patching_rect" : [ 411.0, 580.0, 81.0, 20.0 ],
					"fontsize" : 12.0
				}

			}
, 			{
				"box" : 				{
					"maxclass" : "comment",
					"text" : "lowpass filter",
					"numinlets" : 1,
					"numoutlets" : 0,
					"id" : "obj-13",
					"fontname" : "Arial",
					"patching_rect" : [ 372.0, 408.0, 88.0, 20.0 ],
					"fontsize" : 12.0
				}

			}
, 			{
				"box" : 				{
					"maxclass" : "newobj",
					"text" : "p cosc~",
					"numinlets" : 1,
					"numoutlets" : 2,
					"id" : "obj-3",
					"fontname" : "Arial",
					"patching_rect" : [ 428.0, 299.0, 51.0, 20.0 ],
					"outlettype" : [ "signal", "signal" ],
					"fontsize" : 11.595187,
					"patcher" : 					{
						"fileversion" : 1,
						"rect" : [ 10.0, 59.0, 400.0, 326.0 ],
						"bglocked" : 0,
						"defrect" : [ 10.0, 59.0, 400.0, 326.0 ],
						"openrect" : [ 0.0, 0.0, 0.0, 0.0 ],
						"openinpresentation" : 0,
						"default_fontsize" : 10.0,
						"default_fontface" : 0,
						"default_fontname" : "Arial",
						"gridonopen" : 0,
						"gridsize" : [ 15.0, 15.0 ],
						"gridsnaponopen" : 0,
						"toolbarvisible" : 1,
						"boxanimatetime" : 200,
						"imprint" : 0,
						"enablehscroll" : 1,
						"enablevscroll" : 1,
						"devicewidth" : 0.0,
						"boxes" : [ 							{
								"box" : 								{
									"maxclass" : "comment",
									"text" : "sine/imaginary",
									"numinlets" : 1,
									"numoutlets" : 0,
									"id" : "obj-1",
									"fontname" : "Arial",
									"patching_rect" : [ 147.0, 229.0, 85.0, 20.0 ],
									"fontsize" : 11.595187
								}

							}
, 							{
								"box" : 								{
									"maxclass" : "outlet",
									"numinlets" : 1,
									"numoutlets" : 0,
									"id" : "obj-2",
									"patching_rect" : [ 153.0, 201.0, 25.0, 25.0 ],
									"comment" : ""
								}

							}
, 							{
								"box" : 								{
									"maxclass" : "outlet",
									"numinlets" : 1,
									"numoutlets" : 0,
									"id" : "obj-3",
									"patching_rect" : [ 72.0, 201.0, 25.0, 25.0 ],
									"comment" : ""
								}

							}
, 							{
								"box" : 								{
									"maxclass" : "newobj",
									"text" : "phasor~",
									"numinlets" : 2,
									"numoutlets" : 1,
									"id" : "obj-4",
									"fontname" : "Arial",
									"patching_rect" : [ 176.0, 105.0, 57.0, 20.0 ],
									"outlettype" : [ "signal" ],
									"fontsize" : 11.595187
								}

							}
, 							{
								"box" : 								{
									"maxclass" : "newobj",
									"text" : "cycle~",
									"numinlets" : 2,
									"numoutlets" : 1,
									"id" : "obj-5",
									"fontname" : "Arial",
									"patching_rect" : [ 72.0, 168.0, 42.0, 20.0 ],
									"outlettype" : [ "signal" ],
									"fontsize" : 11.595187
								}

							}
, 							{
								"box" : 								{
									"maxclass" : "inlet",
									"numinlets" : 0,
									"numoutlets" : 1,
									"id" : "obj-6",
									"patching_rect" : [ 176.0, 73.0, 25.0, 25.0 ],
									"outlettype" : [ "" ],
									"comment" : "Frequency of Shift (int, float) Hz"
								}

							}
, 							{
								"box" : 								{
									"maxclass" : "newobj",
									"text" : "cycle~",
									"numinlets" : 2,
									"numoutlets" : 1,
									"id" : "obj-7",
									"fontname" : "Arial",
									"patching_rect" : [ 153.0, 168.0, 42.0, 20.0 ],
									"outlettype" : [ "signal" ],
									"fontsize" : 11.595187
								}

							}
, 							{
								"box" : 								{
									"maxclass" : "newobj",
									"text" : "+~ 0.75",
									"numinlets" : 2,
									"numoutlets" : 1,
									"id" : "obj-8",
									"fontname" : "Arial",
									"patching_rect" : [ 176.0, 137.0, 50.0, 20.0 ],
									"outlettype" : [ "signal" ],
									"fontsize" : 11.595187
								}

							}
, 							{
								"box" : 								{
									"maxclass" : "comment",
									"text" : "freq",
									"numinlets" : 1,
									"numoutlets" : 0,
									"id" : "obj-9",
									"fontname" : "Arial",
									"patching_rect" : [ 203.0, 75.0, 30.0, 20.0 ],
									"fontsize" : 11.595187
								}

							}
, 							{
								"box" : 								{
									"maxclass" : "comment",
									"text" : "cosine/real",
									"numinlets" : 1,
									"numoutlets" : 0,
									"id" : "obj-10",
									"fontname" : "Arial",
									"patching_rect" : [ 69.0, 230.0, 67.0, 20.0 ],
									"fontsize" : 11.595187
								}

							}
 ],
						"lines" : [ 							{
								"patchline" : 								{
									"source" : [ "obj-5", 0 ],
									"destination" : [ "obj-3", 0 ],
									"hidden" : 0,
									"midpoints" : [  ]
								}

							}
, 							{
								"patchline" : 								{
									"source" : [ "obj-4", 0 ],
									"destination" : [ "obj-5", 1 ],
									"hidden" : 0,
									"midpoints" : [  ]
								}

							}
, 							{
								"patchline" : 								{
									"source" : [ "obj-7", 0 ],
									"destination" : [ "obj-2", 0 ],
									"hidden" : 0,
									"midpoints" : [  ]
								}

							}
, 							{
								"patchline" : 								{
									"source" : [ "obj-6", 0 ],
									"destination" : [ "obj-4", 0 ],
									"hidden" : 0,
									"midpoints" : [  ]
								}

							}
, 							{
								"patchline" : 								{
									"source" : [ "obj-4", 0 ],
									"destination" : [ "obj-8", 0 ],
									"hidden" : 0,
									"midpoints" : [  ]
								}

							}
, 							{
								"patchline" : 								{
									"source" : [ "obj-8", 0 ],
									"destination" : [ "obj-7", 1 ],
									"hidden" : 0,
									"midpoints" : [  ]
								}

							}
 ]
					}
,
					"saved_object_attributes" : 					{
						"default_fontname" : "Arial",
						"default_fontsize" : 10.0,
						"fontname" : "Arial",
						"globalpatchername" : "",
						"fontface" : 0,
						"default_fontface" : 0,
						"fontsize" : 10.0
					}

				}

			}
, 			{
				"box" : 				{
					"maxclass" : "comment",
					"text" : "mix oscillator",
					"numinlets" : 1,
					"numoutlets" : 0,
					"id" : "obj-6",
					"fontname" : "Arial",
					"patching_rect" : [ 492.0, 303.0, 118.0, 20.0 ],
					"fontsize" : 12.0
				}

			}
, 			{
				"box" : 				{
					"maxclass" : "comment",
					"text" : "mixer",
					"numinlets" : 1,
					"numoutlets" : 0,
					"id" : "obj-2",
					"fontname" : "Arial",
					"patching_rect" : [ 493.0, 340.0, 108.0, 20.0 ],
					"fontsize" : 12.0
				}

			}
, 			{
				"box" : 				{
					"maxclass" : "comment",
					"text" : "filter width",
					"numinlets" : 1,
					"numoutlets" : 0,
					"id" : "obj-35",
					"fontname" : "Arial",
					"patching_rect" : [ 315.0, 21.0, 83.0, 20.0 ],
					"fontsize" : 12.0
				}

			}
, 			{
				"box" : 				{
					"maxclass" : "comment",
					"text" : "frequency offset",
					"linecount" : 2,
					"numinlets" : 1,
					"numoutlets" : 0,
					"id" : "obj-33",
					"fontname" : "Arial",
					"patching_rect" : [ 411.0, 106.0, 68.0, 34.0 ],
					"fontsize" : 12.0
				}

			}
, 			{
				"box" : 				{
					"maxclass" : "comment",
					"text" : "rf gain",
					"numinlets" : 1,
					"numoutlets" : 0,
					"id" : "obj-30",
					"fontname" : "Arial",
					"patching_rect" : [ 262.0, 20.0, 43.0, 20.0 ],
					"fontsize" : 12.0
				}

			}
, 			{
				"box" : 				{
					"maxclass" : "newobj",
					"text" : "scale 0. 128. 0. 6000",
					"numinlets" : 6,
					"numoutlets" : 1,
					"id" : "obj-27",
					"fontname" : "Arial",
					"patching_rect" : [ 334.0, 380.0, 122.0, 20.0 ],
					"outlettype" : [ "" ],
					"fontsize" : 12.0
				}

			}
, 			{
				"box" : 				{
					"maxclass" : "slider",
					"numinlets" : 1,
					"bgcolor" : [ 0.278431, 0.921569, 0.639216, 1.0 ],
					"numoutlets" : 1,
					"id" : "obj-26",
					"patching_rect" : [ 336.0, 50.0, 20.0, 140.0 ],
					"outlettype" : [ "" ]
				}

			}
, 			{
				"box" : 				{
					"maxclass" : "newobj",
					"text" : "* -1.",
					"numinlets" : 2,
					"numoutlets" : 1,
					"id" : "obj-25",
					"fontname" : "Arial",
					"patching_rect" : [ 458.0, 214.0, 33.0, 20.0 ],
					"outlettype" : [ "float" ],
					"fontsize" : 12.0
				}

			}
, 			{
				"box" : 				{
					"maxclass" : "newobj",
					"text" : "/ 2.",
					"numinlets" : 2,
					"numoutlets" : 1,
					"id" : "obj-24",
					"fontname" : "Arial",
					"patching_rect" : [ 487.0, 186.0, 30.0, 20.0 ],
					"outlettype" : [ "float" ],
					"fontsize" : 12.0
				}

			}
, 			{
				"box" : 				{
					"maxclass" : "newobj",
					"text" : "onepole~ 6000",
					"numinlets" : 2,
					"numoutlets" : 1,
					"id" : "obj-22",
					"fontname" : "Arial",
					"patching_rect" : [ 277.0, 410.0, 90.0, 20.0 ],
					"outlettype" : [ "signal" ],
					"fontsize" : 12.0
				}

			}
, 			{
				"box" : 				{
					"maxclass" : "newobj",
					"text" : "*~ 1.",
					"numinlets" : 2,
					"numoutlets" : 1,
					"id" : "obj-20",
					"fontname" : "Arial",
					"patching_rect" : [ 245.0, 255.0, 36.0, 20.0 ],
					"outlettype" : [ "signal" ],
					"fontsize" : 12.0
				}

			}
, 			{
				"box" : 				{
					"maxclass" : "slider",
					"floatoutput" : 1,
					"numinlets" : 1,
					"bgcolor" : [ 0.917647, 0.937255, 0.670588, 1.0 ],
					"numoutlets" : 1,
					"id" : "obj-19",
					"patching_rect" : [ 270.0, 49.0, 20.0, 140.0 ],
					"outlettype" : [ "" ]
				}

			}
, 			{
				"box" : 				{
					"maxclass" : "newobj",
					"text" : "dspstate~",
					"numinlets" : 1,
					"numoutlets" : 4,
					"id" : "obj-18",
					"fontname" : "Arial",
					"patching_rect" : [ 471.0, 161.0, 63.0, 20.0 ],
					"outlettype" : [ "int", "float", "int", "int" ],
					"fontsize" : 12.0
				}

			}
, 			{
				"box" : 				{
					"maxclass" : "newobj",
					"text" : "scale 0. 128. 0. 44100.",
					"numinlets" : 6,
					"numoutlets" : 1,
					"id" : "obj-17",
					"fontname" : "Arial",
					"patching_rect" : [ 397.0, 241.0, 132.0, 20.0 ],
					"outlettype" : [ "" ],
					"fontsize" : 12.0
				}

			}
, 			{
				"box" : 				{
					"maxclass" : "slider",
					"floatoutput" : 1,
					"numinlets" : 1,
					"bgcolor" : [ 0.929412, 0.584314, 1.0, 1.0 ],
					"numoutlets" : 1,
					"id" : "obj-16",
					"patching_rect" : [ 397.0, 62.0, 562.0, 37.0 ],
					"outlettype" : [ "" ]
				}

			}
, 			{
				"box" : 				{
					"maxclass" : "ezdac~",
					"numinlets" : 2,
					"numoutlets" : 0,
					"id" : "obj-11",
					"patching_rect" : [ 353.0, 556.0, 45.0, 45.0 ]
				}

			}
 ],
		"lines" : [ 			{
				"patchline" : 				{
					"source" : [ "obj-22", 0 ],
					"destination" : [ "obj-7", 0 ],
					"hidden" : 0,
					"midpoints" : [  ]
				}

			}
, 			{
				"patchline" : 				{
					"source" : [ "obj-7", 0 ],
					"destination" : [ "obj-5", 0 ],
					"hidden" : 0,
					"midpoints" : [  ]
				}

			}
, 			{
				"patchline" : 				{
					"source" : [ "obj-5", 0 ],
					"destination" : [ "obj-11", 1 ],
					"hidden" : 0,
					"midpoints" : [  ]
				}

			}
, 			{
				"patchline" : 				{
					"source" : [ "obj-5", 0 ],
					"destination" : [ "obj-11", 0 ],
					"hidden" : 0,
					"midpoints" : [  ]
				}

			}
, 			{
				"patchline" : 				{
					"source" : [ "obj-174", 0 ],
					"destination" : [ "obj-20", 0 ],
					"hidden" : 0,
					"midpoints" : [  ]
				}

			}
, 			{
				"patchline" : 				{
					"source" : [ "obj-174", 1 ],
					"destination" : [ "obj-69", 0 ],
					"hidden" : 0,
					"midpoints" : [  ]
				}

			}
, 			{
				"patchline" : 				{
					"source" : [ "obj-217", 0 ],
					"destination" : [ "obj-1", 0 ],
					"hidden" : 0,
					"midpoints" : [  ]
				}

			}
, 			{
				"patchline" : 				{
					"source" : [ "obj-1", 0 ],
					"destination" : [ "obj-174", 0 ],
					"hidden" : 0,
					"midpoints" : [  ]
				}

			}
, 			{
				"patchline" : 				{
					"source" : [ "obj-1", 1 ],
					"destination" : [ "obj-174", 1 ],
					"hidden" : 0,
					"midpoints" : [  ]
				}

			}
, 			{
				"patchline" : 				{
					"source" : [ "obj-19", 0 ],
					"destination" : [ "obj-69", 1 ],
					"hidden" : 0,
					"midpoints" : [  ]
				}

			}
, 			{
				"patchline" : 				{
					"source" : [ "obj-27", 0 ],
					"destination" : [ "obj-22", 1 ],
					"hidden" : 0,
					"midpoints" : [  ]
				}

			}
, 			{
				"patchline" : 				{
					"source" : [ "obj-17", 0 ],
					"destination" : [ "obj-3", 0 ],
					"hidden" : 0,
					"midpoints" : [  ]
				}

			}
, 			{
				"patchline" : 				{
					"source" : [ "obj-26", 0 ],
					"destination" : [ "obj-27", 0 ],
					"hidden" : 0,
					"midpoints" : [  ]
				}

			}
, 			{
				"patchline" : 				{
					"source" : [ "obj-24", 0 ],
					"destination" : [ "obj-17", 4 ],
					"hidden" : 0,
					"midpoints" : [  ]
				}

			}
, 			{
				"patchline" : 				{
					"source" : [ "obj-25", 0 ],
					"destination" : [ "obj-17", 3 ],
					"hidden" : 0,
					"midpoints" : [  ]
				}

			}
, 			{
				"patchline" : 				{
					"source" : [ "obj-24", 0 ],
					"destination" : [ "obj-25", 0 ],
					"hidden" : 0,
					"midpoints" : [  ]
				}

			}
, 			{
				"patchline" : 				{
					"source" : [ "obj-18", 1 ],
					"destination" : [ "obj-24", 0 ],
					"hidden" : 0,
					"midpoints" : [  ]
				}

			}
, 			{
				"patchline" : 				{
					"source" : [ "obj-19", 0 ],
					"destination" : [ "obj-20", 1 ],
					"hidden" : 0,
					"midpoints" : [  ]
				}

			}
, 			{
				"patchline" : 				{
					"source" : [ "obj-16", 0 ],
					"destination" : [ "obj-17", 0 ],
					"hidden" : 0,
					"midpoints" : [  ]
				}

			}
, 			{
				"patchline" : 				{
					"source" : [ "obj-20", 0 ],
					"destination" : [ "obj-118", 0 ],
					"hidden" : 0,
					"midpoints" : [  ]
				}

			}
, 			{
				"patchline" : 				{
					"source" : [ "obj-69", 0 ],
					"destination" : [ "obj-118", 1 ],
					"hidden" : 0,
					"midpoints" : [  ]
				}

			}
, 			{
				"patchline" : 				{
					"source" : [ "obj-3", 0 ],
					"destination" : [ "obj-118", 2 ],
					"hidden" : 0,
					"midpoints" : [  ]
				}

			}
, 			{
				"patchline" : 				{
					"source" : [ "obj-3", 1 ],
					"destination" : [ "obj-118", 3 ],
					"hidden" : 0,
					"midpoints" : [  ]
				}

			}
, 			{
				"patchline" : 				{
					"source" : [ "obj-118", 0 ],
					"destination" : [ "obj-22", 0 ],
					"hidden" : 0,
					"midpoints" : [  ]
				}

			}
 ],
		"parameters" : 		{
			"obj-5" : [ "live.gain~", "live.gain~", 0 ]
		}

	}

}
