{
	"patcher" : 	{
		"fileversion" : 1,
		"rect" : [ 82.0, 44.0, 422.0, 219.0 ],
		"bglocked" : 0,
		"defrect" : [ 82.0, 44.0, 422.0, 219.0 ],
		"openrect" : [ 0.0, 0.0, 0.0, 0.0 ],
		"openinpresentation" : 0,
		"default_fontsize" : 12.0,
		"default_fontface" : 0,
		"default_fontname" : "Arial",
		"gridonopen" : 0,
		"gridsize" : [ 15.0, 15.0 ],
		"gridsnaponopen" : 0,
		"toolbarvisible" : 1,
		"boxanimatetime" : 200,
		"imprint" : 0,
		"enablehscroll" : 1,
		"enablevscroll" : 1,
		"devicewidth" : 0.0,
		"boxes" : [ 			{
				"box" : 				{
					"maxclass" : "comment",
					"text" : "preamp",
					"patching_rect" : [ 194.0, 7.0, 64.0, 20.0 ],
					"fontsize" : 12.0,
					"numinlets" : 1,
					"id" : "obj-36",
					"fontname" : "Arial",
					"numoutlets" : 0
				}

			}
, 			{
				"box" : 				{
					"maxclass" : "newobj",
					"text" : "*~ 1.",
					"patching_rect" : [ 198.0, 91.0, 36.0, 20.0 ],
					"outlettype" : [ "signal" ],
					"fontsize" : 12.0,
					"numinlets" : 2,
					"id" : "obj-20",
					"fontname" : "Arial",
					"numoutlets" : 1
				}

			}
, 			{
				"box" : 				{
					"maxclass" : "newobj",
					"text" : "adc~",
					"patching_rect" : [ 199.0, 60.5, 37.0, 20.0 ],
					"outlettype" : [ "signal", "signal" ],
					"fontsize" : 12.0,
					"numinlets" : 1,
					"id" : "obj-89",
					"fontname" : "Arial",
					"numoutlets" : 2
				}

			}
, 			{
				"box" : 				{
					"maxclass" : "newobj",
					"text" : "scale 0. 128. 0.1 256",
					"patching_rect" : [ 265.0, 61.0, 122.0, 20.0 ],
					"outlettype" : [ "" ],
					"fontsize" : 12.0,
					"numinlets" : 6,
					"id" : "obj-29",
					"fontname" : "Arial",
					"numoutlets" : 1
				}

			}
, 			{
				"box" : 				{
					"maxclass" : "slider",
					"patching_rect" : [ 193.0, 31.0, 191.0, 18.0 ],
					"outlettype" : [ "" ],
					"bgcolor" : [ 0.678431, 0.819608, 0.819608, 1.0 ],
					"numinlets" : 1,
					"id" : "obj-14",
					"numoutlets" : 1
				}

			}
, 			{
				"box" : 				{
					"maxclass" : "comment",
					"text" : "Connect an antenna to the left channel of your audio line-in jack.\n\nLike the classic crystal set, it works better at night\n\nMinimalist version.",
					"linecount" : 8,
					"patching_rect" : [ 21.0, 31.0, 154.0, 117.0 ],
					"fontsize" : 12.0,
					"bgcolor" : [ 0.917647, 0.937255, 0.670588, 1.0 ],
					"numinlets" : 1,
					"id" : "obj-37",
					"fontname" : "Arial",
					"numoutlets" : 0
				}

			}
, 			{
				"box" : 				{
					"maxclass" : "ezdac~",
					"patching_rect" : [ 190.0, 127.0, 45.0, 45.0 ],
					"numinlets" : 2,
					"id" : "obj-11",
					"numoutlets" : 0
				}

			}
 ],
		"lines" : [ 			{
				"patchline" : 				{
					"source" : [ "obj-29", 0 ],
					"destination" : [ "obj-20", 1 ],
					"hidden" : 0,
					"midpoints" : [  ]
				}

			}
, 			{
				"patchline" : 				{
					"source" : [ "obj-20", 0 ],
					"destination" : [ "obj-11", 1 ],
					"hidden" : 0,
					"midpoints" : [  ]
				}

			}
, 			{
				"patchline" : 				{
					"source" : [ "obj-20", 0 ],
					"destination" : [ "obj-11", 0 ],
					"hidden" : 0,
					"midpoints" : [  ]
				}

			}
, 			{
				"patchline" : 				{
					"source" : [ "obj-89", 0 ],
					"destination" : [ "obj-20", 0 ],
					"hidden" : 0,
					"midpoints" : [  ]
				}

			}
, 			{
				"patchline" : 				{
					"source" : [ "obj-14", 0 ],
					"destination" : [ "obj-29", 0 ],
					"hidden" : 0,
					"midpoints" : [  ]
				}

			}
 ],
		"parameters" : 		{

		}

	}

}
